<svg version="1.1" id="Layer_1" xmlns="http://www.w3.org/2000/svg" xmlns:xlink="http://www.w3.org/1999/xlink" x="0px" y="0px"
	 width="100%" viewBox="0 0 256 256" enable-background="new 0 0 256 256" xml:space="preserve">
<path fill="#97908E" opacity="1.000000" stroke="none" 
	d="
M5.000000,1.000000 
	C7.042318,1.000000 9.084636,1.000000 11.511388,1.329808 
	C10.891999,3.293917 9.888176,4.928219 8.454650,6.694139 
	C7.561183,8.969200 6.693900,11.112280 6.691973,13.256137 
	C6.622465,90.600868 6.631235,167.945663 6.647229,245.290451 
	C6.647640,247.278320 6.849911,249.266144 6.976533,251.663239 
	C6.996683,253.714981 6.998342,255.357498 7.000000,257.000000 
	C7.000000,257.000000 6.500000,257.000000 6.060385,256.663849 
	C5.081293,253.801605 4.072984,251.276016 4.070360,248.749359 
	C3.987495,168.956726 3.992250,89.163986 4.044363,9.371304 
	C4.046185,6.580662 4.667448,3.790425 5.000000,1.000000 
z"/>
<path fill="#9F9795" opacity="1.000000" stroke="none" 
	d="
M4.500000,1.000000 
	C4.667448,3.790425 4.046185,6.580662 4.044363,9.371304 
	C3.992250,89.163986 3.987495,168.956726 4.070360,248.749359 
	C4.072984,251.276016 5.081293,253.801605 5.810385,256.663849 
	C4.333333,257.000000 2.666667,257.000000 1.000000,257.000000 
	C1.000000,173.000000 0.998146,89.000000 1.011100,5.000002 
	C1.011411,2.983020 -0.016389,0.071041 4.500000,1.000000 
z"/>
<path fill="#514440" opacity="1.000000" stroke="none" 
	d="
M257.000000,251.000000 
	C257.000000,251.444443 257.000000,251.888901 256.709930,252.828232 
	C252.505524,256.921631 253.381393,251.141846 251.531860,250.347168 
	C251.604156,169.659500 251.624756,89.424500 251.637863,9.189488 
	C251.637970,8.526146 251.536758,7.862788 251.793640,6.980639 
	C252.736267,4.841228 253.368134,2.920614 254.000000,1.000000 
	C259.031403,0.251456 256.369904,4.114567 256.620697,6.624933 
	C255.827393,8.590716 255.052078,9.935755 255.051086,11.281364 
	C254.993103,89.693138 254.988083,168.104980 255.082443,246.516678 
	C255.084244,248.011887 256.333038,249.505600 257.000000,251.000000 
z"/>
<path fill="#4B3D39" opacity="1.000000" stroke="none" 
	d="
M257.000000,250.531342 
	C256.333038,249.505600 255.084244,248.011887 255.082443,246.516678 
	C254.988083,168.104980 254.993103,89.693138 255.051086,11.281364 
	C255.052078,9.935755 255.827393,8.590716 256.620697,7.122705 
	C257.000000,88.020897 257.000000,169.041794 257.000000,250.531342 
z"/>
<path fill="#C1BDBC" opacity="1.000000" stroke="none" 
	d="
M136.000000,1.000000 
	C141.354935,1.000000 146.709854,1.000000 152.488434,1.341762 
	C153.693741,3.283017 154.475403,4.882512 154.814880,6.624712 
	C148.271317,6.549934 142.169968,6.332450 136.043854,5.687417 
	C136.012741,3.839911 136.006378,2.419955 136.000000,1.000000 
z"/>
<path fill="#9F9795" opacity="1.000000" stroke="none" 
	d="
M71.000000,1.000000 
	C76.022095,1.000000 81.044182,1.000000 86.531601,1.393056 
	C87.008141,3.354015 87.019348,4.921916 86.565475,6.546235 
	C81.058769,6.564609 76.017136,6.526566 70.976212,6.097706 
	C70.984619,4.137927 70.992310,2.568963 71.000000,1.000000 
z"/>
<path fill="#615652" opacity="1.000000" stroke="none" 
	d="
M35.000000,257.000000 
	C30.643101,257.000000 26.286201,257.000000 21.464308,256.573578 
	C20.992035,254.725525 20.984756,253.303894 21.435890,251.787613 
	C26.266991,251.759293 30.639677,251.825607 35.009762,252.317673 
	C35.004772,254.162277 35.002384,255.581131 35.000000,257.000000 
z"/>
<path fill="#CECAC9" opacity="1.000000" stroke="none" 
	d="
M218.000000,257.000000 
	C214.637894,257.000000 211.275803,257.000000 207.449997,256.666351 
	C205.923096,254.696945 204.859909,253.061203 204.240875,251.307495 
	C209.112915,251.440247 213.540771,251.690933 217.976990,252.363129 
	C217.990219,254.189758 217.995117,255.594879 218.000000,257.000000 
z"/>
<path fill="#BCB9B8" opacity="1.000000" stroke="none" 
	d="
M8.884353,6.562521 
	C9.888176,4.928219 10.891999,3.293917 11.947911,1.329808 
	C14.370558,1.000000 16.741116,1.000000 19.422451,1.352149 
	C20.451807,3.256891 21.170385,4.809484 21.555199,6.575764 
	C17.109074,6.713808 12.996713,6.638164 8.884353,6.562521 
z"/>
<path fill="#C7C3C2" opacity="1.000000" stroke="none" 
	d="
M232.000000,1.000000 
	C234.370560,1.000000 236.741104,1.000000 239.446075,1.356961 
	C240.475540,3.264056 241.170593,4.814191 241.535217,6.577241 
	C237.099701,6.731086 232.994629,6.672016 228.924896,6.274470 
	C229.973495,4.290662 230.986740,2.645331 232.000000,1.000000 
z"/>
<path fill="#C7C3C2" opacity="1.000000" stroke="none" 
	d="
M148.000000,257.000000 
	C144.637894,257.000000 141.275803,257.000000 137.456802,256.575165 
	C137.024384,254.734390 137.048859,253.318451 137.510773,251.875397 
	C142.019257,251.727081 146.090286,251.605896 150.079529,251.808929 
	C149.331818,253.755417 148.665909,255.377716 148.000000,257.000000 
z"/>
<path fill="#615652" opacity="1.000000" stroke="none" 
	d="
M105.000000,1.000000 
	C109.025185,1.000000 113.050362,1.000000 117.536728,1.358345 
	C117.980530,2.433094 117.963142,3.149498 117.669518,4.076612 
	C117.287613,4.959713 117.181946,5.632104 116.610992,6.323827 
	C112.423599,6.265404 108.701500,6.187648 104.984100,5.684029 
	C104.992538,3.838777 104.996269,2.419388 105.000000,1.000000 
z"/>
<path fill="#827875" opacity="1.000000" stroke="none" 
	d="
M48.000000,1.000000 
	C50.370556,1.000000 52.741116,1.000000 55.604523,1.348504 
	C56.391716,3.294456 56.686054,4.891904 56.513882,6.493599 
	C48.607555,6.403906 41.167744,6.309967 34.157494,6.105160 
	C36.343105,5.894298 38.099148,5.794304 40.305397,5.750708 
	C43.300426,5.807105 45.845245,5.807105 48.855740,5.807105 
	C48.492668,3.767564 48.246334,2.383782 48.000000,1.000000 
z"/>
<path fill="#615652" opacity="1.000000" stroke="none" 
	d="
M118.000000,257.000000 
	C113.974815,257.000000 109.949638,257.000000 105.462936,256.574158 
	C104.993881,254.728271 104.986343,253.308258 105.434509,251.794586 
	C109.618843,251.697815 113.347481,251.694687 117.049454,252.038818 
	C117.330711,252.968842 117.638626,253.551605 117.961151,254.492355 
	C117.983841,255.566910 117.991920,256.283447 118.000000,257.000000 
z"/>
<path fill="#615652" opacity="1.000000" stroke="none" 
	d="
M21.888964,6.362076 
	C21.170385,4.809484 20.451807,3.256891 19.866615,1.352149 
	C24.024544,1.000000 28.049088,1.000000 32.536652,1.424952 
	C33.001068,3.266621 33.002464,4.683338 32.554905,6.209554 
	C28.700287,6.333393 25.294626,6.347734 21.888964,6.362076 
z"/>
<path fill="#432D26" opacity="1.000000" stroke="none" 
	d="
M178.000000,257.000000 
	C174.307098,257.000000 170.614182,257.000000 166.466003,256.612701 
	C165.985931,255.451401 165.961121,254.677383 166.001190,253.482391 
	C170.037918,252.761932 174.009750,252.462448 177.990265,252.564438 
	C177.999313,254.310608 177.999649,255.655304 178.000000,257.000000 
z"/>
<path fill="#79716E" opacity="1.000000" stroke="none" 
	d="
M155.257050,6.482009 
	C154.475403,4.882512 153.693741,3.283017 152.956055,1.341762 
	C157.356903,1.000000 161.713806,1.000000 166.525574,1.239564 
	C166.980453,1.479128 167.032349,1.955837 166.743927,2.124527 
	C164.857834,3.714195 163.260178,5.135172 161.262329,6.543751 
	C158.993759,6.514904 157.125412,6.498458 155.257050,6.482009 
z"/>
<path fill="#9F9795" opacity="1.000000" stroke="none" 
	d="
M84.000000,257.000000 
	C80.969406,257.000000 77.938812,257.000000 74.452522,256.619659 
	C73.987564,255.225113 73.978310,254.210922 74.183716,253.037750 
	C74.663818,252.435577 74.929253,251.992371 75.605331,251.493698 
	C77.945465,251.480591 79.874954,251.522919 81.902771,251.839584 
	C82.692520,252.813583 83.383942,253.513245 84.051102,254.560608 
	C84.017899,255.605545 84.008949,256.302765 84.000000,257.000000 
z"/>
<path fill="#8D8482" opacity="1.000000" stroke="none" 
	d="
M84.449059,257.000000 
	C84.008949,256.302765 84.017899,255.605545 84.279358,254.364960 
	C84.797089,253.090408 85.062309,252.359207 85.747337,251.577911 
	C88.454163,251.521591 90.741188,251.515366 93.027016,251.900146 
	C93.017220,253.860764 93.008614,255.430374 93.000000,257.000000 
	C90.299370,257.000000 87.598747,257.000000 84.449059,257.000000 
z"/>
<path fill="#736764" opacity="1.000000" stroke="none" 
	d="
M104.545891,1.000000 
	C104.996269,2.419388 104.992538,3.838777 104.545471,5.801083 
	C101.380302,6.314943 98.658485,6.285885 95.961304,5.914947 
	C95.681641,4.996525 95.377342,4.419982 95.054733,3.488320 
	C95.024277,2.422132 95.012138,1.711066 95.000000,1.000000 
	C98.030594,1.000000 101.061188,1.000000 104.545891,1.000000 
z"/>
<path fill="#8D8482" opacity="1.000000" stroke="none" 
	d="
M66.000000,257.000000 
	C63.629444,257.000000 61.258884,257.000000 58.444527,256.606384 
	C57.991055,254.644867 57.981388,253.076935 58.416042,251.479446 
	C61.232422,251.470566 63.604477,251.491241 65.977905,251.902679 
	C65.986191,253.862320 65.993095,255.431152 66.000000,257.000000 
z"/>
<path fill="#432D26" opacity="1.000000" stroke="none" 
	d="
M167.032349,1.955842 
	C167.032349,1.955837 166.980453,1.479128 166.990234,1.239564 
	C170.362106,1.000000 173.724197,1.000000 177.543640,1.422504 
	C178.002258,3.259214 178.003540,4.673419 177.566498,6.192222 
	C174.721832,6.316383 172.315521,6.335948 169.924896,6.000248 
	C168.971176,4.415271 168.001755,3.185559 167.032349,1.955842 
z"/>
<path fill="#97908E" opacity="1.000000" stroke="none" 
	d="
M66.444168,257.000000 
	C65.993095,255.431152 65.986191,253.862320 66.403671,251.861069 
	C68.806328,251.477798 70.784599,251.526932 72.850967,251.816849 
	C73.282394,252.437317 73.625725,252.817017 73.969048,253.196716 
	C73.978310,254.210922 73.987564,255.225113 73.998413,256.619659 
	C71.629440,257.000000 69.258888,257.000000 66.444168,257.000000 
z"/>
<path fill="#C7C3C2" opacity="1.000000" stroke="none" 
	d="
M210.000000,1.000000 
	C212.700623,1.000000 215.401260,1.000000 218.551086,1.421668 
	C218.993362,3.251370 218.986420,4.659404 218.532547,6.083859 
	C215.406952,6.114193 212.728256,6.128108 210.036377,5.712701 
	C210.015457,3.855587 210.007721,2.427794 210.000000,1.000000 
z"/>
<path fill="#736764" opacity="1.000000" stroke="none" 
	d="
M165.936295,253.903381 
	C165.961121,254.677383 165.985931,255.451401 166.005371,256.612701 
	C162.969406,257.000000 159.938812,257.000000 156.464020,256.606567 
	C156.031540,254.643387 156.043274,253.073685 156.394867,251.650574 
	C159.801926,252.499252 162.869110,253.201324 165.936295,253.903381 
z"/>
<path fill="#9F9795" opacity="1.000000" stroke="none" 
	d="
M203.796722,251.425446 
	C204.859909,253.061203 205.923096,254.696945 206.993149,256.666351 
	C204.299988,257.000000 201.599976,257.000000 198.452484,256.606384 
	C197.989212,254.645020 197.973404,253.077255 198.371796,251.448486 
	C200.456223,251.400146 202.126480,251.412796 203.796722,251.425446 
z"/>
<path fill="#615652" opacity="1.000000" stroke="none" 
	d="
M251.479782,250.799835 
	C253.381393,251.141846 252.505524,256.921631 256.709930,253.161560 
	C257.000000,254.286606 257.000000,255.573196 257.000000,257.000000 
	C253.991776,257.000000 250.982468,257.000000 247.486954,256.596924 
	C247.004883,254.855347 247.008987,253.516861 247.353882,252.115784 
	C248.956360,251.635422 250.218063,251.217621 251.479782,250.799835 
z"/>
<path fill="#897E7B" opacity="1.000000" stroke="none" 
	d="
M56.980392,6.489353 
	C56.686054,4.891904 56.391716,3.294456 56.048691,1.348504 
	C58.370556,1.000000 60.741116,1.000000 63.553833,1.393060 
	C63.988403,3.354110 63.980812,4.922099 63.536560,6.495349 
	C61.060062,6.496857 59.020226,6.493105 56.980392,6.489353 
z"/>
<path fill="#97908E" opacity="1.000000" stroke="none" 
	d="
M156.054993,251.503967 
	C156.043274,253.073685 156.031540,254.643387 156.009903,256.606567 
	C153.629440,257.000000 151.258896,257.000000 148.444168,257.000000 
	C148.665909,255.377716 149.331818,253.755417 150.501465,251.785599 
	C152.688461,251.460037 154.371719,251.481995 156.054993,251.503967 
z"/>
<path fill="#827875" opacity="1.000000" stroke="none" 
	d="
M118.444168,257.000000 
	C117.991920,256.283447 117.983841,255.566910 118.225433,254.341095 
	C119.081871,253.049683 119.688629,252.267517 120.663727,251.478668 
	C122.705513,251.606552 124.378960,251.741119 126.032227,252.303894 
	C126.008026,254.154709 126.004013,255.577362 126.000000,257.000000 
	C123.629440,257.000000 121.258888,257.000000 118.444168,257.000000 
z"/>
<path fill="#736764" opacity="1.000000" stroke="none" 
	d="
M47.555836,1.000000 
	C48.246334,2.383782 48.492668,3.767564 48.855740,5.807105 
	C45.845245,5.807105 43.300426,5.807105 40.351330,5.367724 
	C39.964703,3.618896 39.982353,2.309448 40.000000,1.000000 
	C42.370556,1.000000 44.741116,1.000000 47.555836,1.000000 
z"/>
<path fill="#948A88" opacity="1.000000" stroke="none" 
	d="
M63.973228,6.490088 
	C63.980812,4.922099 63.988403,3.354110 63.997993,1.393060 
	C66.041664,1.000000 68.083336,1.000000 70.562500,1.000000 
	C70.992310,2.568963 70.984619,4.137927 70.539017,6.119120 
	C68.058472,6.517596 66.015854,6.503842 63.973228,6.490088 
z"/>
<path fill="#827875" opacity="1.000000" stroke="none" 
	d="
M57.971718,251.509003 
	C57.981388,253.076935 57.991055,254.644867 58.000362,256.606384 
	C55.958332,257.000000 53.916668,257.000000 51.438164,256.571198 
	C50.992046,254.712814 50.982765,253.283249 51.326309,251.714417 
	C53.776661,251.553101 55.874191,251.531052 57.971718,251.509003 
z"/>
<path fill="#9F9795" opacity="1.000000" stroke="none" 
	d="
M197.000000,1.000000 
	C199.370560,1.000000 201.741104,1.000000 204.562363,1.430640 
	C205.053665,3.300144 205.094269,4.739009 204.737762,6.201635 
	C202.289276,6.345994 200.237885,6.466593 198.099457,6.325529 
	C197.678940,5.405990 197.345444,4.748112 197.014587,3.703949 
	C197.011475,2.545108 197.005737,1.772554 197.000000,1.000000 
z"/>
<path fill="#6D605C" opacity="1.000000" stroke="none" 
	d="
M35.444164,257.000000 
	C35.002384,255.581131 35.004772,254.162277 35.447910,252.203278 
	C38.599300,251.734451 41.309944,251.805740 43.969864,252.248657 
	C43.612766,254.080170 43.306385,255.540085 43.000000,257.000000 
	C40.629444,257.000000 38.258884,257.000000 35.444164,257.000000 
z"/>
<path fill="#827875" opacity="1.000000" stroke="none" 
	d="
M197.957611,251.509476 
	C197.973404,253.077255 197.989212,254.645020 198.002502,256.606384 
	C195.958328,257.000000 193.916672,257.000000 191.434570,256.599182 
	C190.990997,255.396683 190.987839,254.595016 191.076538,253.530640 
	C191.566238,252.643890 191.964066,252.019852 192.760040,251.421326 
	C194.757980,251.467697 196.357788,251.488586 197.957611,251.509476 
z"/>
<path fill="#8D8482" opacity="1.000000" stroke="none" 
	d="
M94.555832,1.000000 
	C95.012138,1.711066 95.024277,2.422132 94.735558,3.566697 
	C93.536110,4.831037 92.637527,5.661880 91.347496,6.517831 
	C89.647552,6.525233 88.339058,6.507526 87.030556,6.489819 
	C87.019348,4.921916 87.008141,3.354015 86.998466,1.393056 
	C89.370560,1.000000 91.741112,1.000000 94.555832,1.000000 
z"/>
<path fill="#736764" opacity="1.000000" stroke="none" 
	d="
M20.977478,251.882263 
	C20.984756,253.303894 20.992035,254.725525 20.999657,256.573578 
	C18.629442,257.000000 16.258884,257.000000 13.445250,256.613007 
	C12.981931,255.452408 12.961692,254.678802 13.088316,253.636810 
	C13.471585,252.821594 13.707992,252.274780 14.384749,251.699066 
	C16.875893,251.740860 18.926685,251.811569 20.977478,251.882263 
z"/>
<path fill="#ADA4A3" opacity="1.000000" stroke="none" 
	d="
M231.550018,1.000000 
	C230.986740,2.645331 229.973495,4.290662 228.557480,6.289353 
	C226.420517,6.464226 224.686325,6.285739 222.968872,5.680923 
	C222.990417,3.836396 222.995209,2.418198 223.000000,1.000000 
	C225.700012,1.000000 228.400024,1.000000 231.550018,1.000000 
z"/>
<path fill="#675855" opacity="1.000000" stroke="none" 
	d="
M190.984680,253.793335 
	C190.987839,254.595016 190.990997,255.396683 190.997070,256.599182 
	C188.629440,257.000000 186.258896,257.000000 183.445312,256.595642 
	C182.991730,254.849976 182.981155,253.508652 183.415100,252.090027 
	C185.951370,251.865723 188.043106,251.718689 190.100006,251.904205 
	C190.371658,252.755615 190.678177,253.274475 190.984680,253.793335 
z"/>
<path fill="#79716E" opacity="1.000000" stroke="none" 
	d="
M43.444168,257.000000 
	C43.306385,255.540085 43.612766,254.080170 44.393456,252.136993 
	C46.903004,251.720367 48.938244,251.787018 50.973484,251.853668 
	C50.982765,253.283249 50.992046,254.712814 51.000664,256.571198 
	C48.629444,257.000000 46.258884,257.000000 43.444168,257.000000 
z"/>
<path fill="#79716E" opacity="1.000000" stroke="none" 
	d="
M196.555847,1.000000 
	C197.005737,1.772554 197.011475,2.545108 196.707138,3.786956 
	C195.954575,4.942464 195.512070,5.628680 194.637283,6.333903 
	C192.482300,6.278203 190.759598,6.203497 189.031357,5.701294 
	C189.017197,3.849199 189.008606,2.424599 189.000000,1.000000 
	C191.370560,1.000000 193.741104,1.000000 196.555847,1.000000 
z"/>
<path fill="#827875" opacity="1.000000" stroke="none" 
	d="
M117.945755,3.865904 
	C117.963142,3.149498 117.980530,2.433094 117.998962,1.358345 
	C120.370560,1.000000 122.741112,1.000000 125.553421,1.425411 
	C126.010437,3.274776 126.025719,4.698730 125.607140,6.191553 
	C123.421707,6.329114 121.670135,6.397805 119.871513,6.125453 
	C119.198227,5.144907 118.571991,4.505406 117.945755,3.865904 
z"/>
<path fill="#827875" opacity="1.000000" stroke="none" 
	d="
M93.428467,257.000000 
	C93.008614,255.430374 93.017220,253.860764 93.413689,251.898407 
	C95.542412,251.621552 97.283279,251.737457 99.014328,252.282333 
	C99.003006,254.140884 99.001503,255.570435 99.000000,257.000000 
	C97.285645,257.000000 95.571281,257.000000 93.428467,257.000000 
z"/>
<path fill="#615652" opacity="1.000000" stroke="none" 
	d="
M253.562500,1.000000 
	C253.368134,2.920614 252.736267,4.841228 251.491272,6.843392 
	C249.581375,6.652174 248.284637,6.379404 246.990860,5.680990 
	C246.995895,3.836897 246.997955,2.418448 247.000000,1.000000 
	C249.041672,1.000000 251.083328,1.000000 253.562500,1.000000 
z"/>
<path fill="#675855" opacity="1.000000" stroke="none" 
	d="
M39.562500,1.000000 
	C39.982353,2.309448 39.964703,3.618896 39.901123,5.311328 
	C38.099148,5.794304 36.343105,5.894298 33.966103,6.142064 
	C33.345139,6.289836 33.003860,6.100055 33.003860,6.100055 
	C33.002464,4.683338 33.001068,3.266621 32.999836,1.424952 
	C35.041668,1.000000 37.083332,1.000000 39.562500,1.000000 
z"/>
<path fill="#8D8482" opacity="1.000000" stroke="none" 
	d="
M12.941453,253.905197 
	C12.961692,254.678802 12.981931,255.452408 13.001085,256.613007 
	C11.285625,257.000000 9.571249,257.000000 7.428437,257.000000 
	C6.998342,255.357498 6.996683,253.714981 7.353730,251.708466 
	C8.722759,251.396851 9.733084,251.449280 10.840940,251.765381 
	C11.606133,252.654434 12.273792,253.279816 12.941453,253.905197 
z"/>
<path fill="#6D605C" opacity="1.000000" stroke="none" 
	d="
M246.562500,1.000000 
	C246.997955,2.418448 246.995895,3.836897 246.576843,5.791650 
	C244.728455,6.340078 243.297043,6.352202 241.865646,6.364326 
	C241.170593,4.814191 240.475540,3.264056 239.890244,1.356961 
	C242.041672,1.000000 244.083328,1.000000 246.562500,1.000000 
z"/>
<path fill="#ADA4A3" opacity="1.000000" stroke="none" 
	d="
M137.073318,251.902512 
	C137.048859,253.318451 137.024384,254.734390 136.999954,256.575165 
	C135.285843,257.000000 133.571671,257.000000 131.428406,256.573883 
	C131.016312,254.721100 131.033310,253.294449 131.474976,251.810730 
	C133.624207,251.803284 135.348770,251.852905 137.073318,251.902512 
z"/>
<path fill="#736764" opacity="1.000000" stroke="none" 
	d="
M99.428368,257.000000 
	C99.001503,255.570435 99.003006,254.140884 99.434578,252.197403 
	C101.569366,251.751740 103.274078,251.819992 104.978806,251.888245 
	C104.986343,253.308258 104.993881,254.728271 105.000717,256.574158 
	C103.285576,257.000000 101.571159,257.000000 99.428368,257.000000 
z"/>
<path fill="#615652" opacity="1.000000" stroke="none" 
	d="
M188.571259,1.000000 
	C189.008606,2.424599 189.017197,3.849199 188.606079,5.786446 
	C186.464310,6.231370 184.742279,6.163648 183.013733,5.669709 
	C183.004822,3.828995 183.002411,2.414497 183.000000,1.000000 
	C184.714157,1.000000 186.428329,1.000000 188.571259,1.000000 
z"/>
<path fill="#ADA4A3" opacity="1.000000" stroke="none" 
	d="
M228.000000,257.000000 
	C226.611008,257.000000 225.222000,257.000000 223.417816,256.606445 
	C223.013977,254.643860 223.025345,253.074860 223.393646,251.452789 
	C225.156326,251.547211 226.562057,251.694702 227.978592,252.273865 
	C227.992920,254.137024 227.996460,255.568512 228.000000,257.000000 
z"/>
<path fill="#BCB9B8" opacity="1.000000" stroke="none" 
	d="
M223.036713,251.505859 
	C223.025345,253.074860 223.013977,254.643860 223.001312,256.606445 
	C221.611115,257.000000 220.222214,257.000000 218.416656,257.000000 
	C217.995117,255.594879 217.990219,254.189758 218.345886,252.336487 
	C220.149872,251.760849 221.593292,251.633362 223.036713,251.505859 
z"/>
<path fill="#4B3D39" opacity="1.000000" stroke="none" 
	d="
M182.583344,1.000000 
	C183.002411,2.414497 183.004822,3.828995 182.602173,5.766019 
	C180.799683,6.221572 179.402267,6.154598 178.004837,6.087624 
	C178.003540,4.673419 178.002258,3.259214 178.000488,1.422504 
	C179.388885,1.000000 180.777786,1.000000 182.583344,1.000000 
z"/>
<path fill="#4B3D39" opacity="1.000000" stroke="none" 
	d="
M182.970581,252.167313 
	C182.981155,253.508652 182.991730,254.849976 183.001160,256.595642 
	C181.611115,257.000000 180.222214,257.000000 178.416656,257.000000 
	C177.999649,255.655304 177.999313,254.310608 178.401581,252.491913 
	C180.192993,252.067719 181.581787,252.117508 182.970581,252.167313 
z"/>
<path fill="#9F9795" opacity="1.000000" stroke="none" 
	d="
M228.416672,257.000000 
	C227.996460,255.568512 227.992920,254.137024 228.393188,252.225739 
	C230.181107,251.776443 231.565186,251.806961 232.965271,252.269470 
	C232.987488,254.134293 232.993744,255.567154 233.000000,257.000000 
	C231.611115,257.000000 230.222214,257.000000 228.416672,257.000000 
z"/>
<path fill="#ADA4A3" opacity="1.000000" stroke="none" 
	d="
M135.583344,1.000000 
	C136.006378,2.419955 136.012741,3.839911 135.623688,5.716755 
	C133.835632,6.159821 132.443039,6.145999 131.032318,5.703171 
	C131.009460,3.849443 131.004730,2.424722 131.000000,1.000000 
	C132.388885,1.000000 133.777786,1.000000 135.583344,1.000000 
z"/>
<path fill="#BCB9B8" opacity="1.000000" stroke="none" 
	d="
M205.134872,6.177874 
	C205.094269,4.739009 205.053665,3.300144 205.006531,1.430640 
	C206.388885,1.000000 207.777786,1.000000 209.583328,1.000000 
	C210.007721,2.427794 210.015457,3.855587 209.623657,5.733022 
	C207.861038,6.181067 206.497955,6.179471 205.134872,6.177874 
z"/>
<path fill="#97908E" opacity="1.000000" stroke="none" 
	d="
M130.583344,1.000000 
	C131.004730,2.424722 131.009460,3.849443 130.615051,5.754785 
	C128.824280,6.197831 127.432640,6.160257 126.041000,6.122683 
	C126.025719,4.698730 126.010437,3.274776 125.997581,1.425411 
	C127.388893,1.000000 128.777786,1.000000 130.583344,1.000000 
z"/>
<path fill="#8D8482" opacity="1.000000" stroke="none" 
	d="
M233.416656,257.000000 
	C232.993744,255.567154 232.987488,254.134293 233.391174,252.288147 
	C235.211441,251.977905 236.621796,252.080933 238.019012,252.582825 
	C238.003922,254.321106 238.001953,255.660553 238.000000,257.000000 
	C236.611115,257.000000 235.222214,257.000000 233.416656,257.000000 
z"/>
<path fill="#97908E" opacity="1.000000" stroke="none" 
	d="
M131.050323,251.867783 
	C131.033310,253.294449 131.016312,254.721100 130.999649,256.573883 
	C129.611115,257.000000 128.222214,257.000000 126.416664,257.000000 
	C126.004013,255.577362 126.008026,254.154709 126.441177,252.215454 
	C128.263641,251.755142 129.656982,251.811462 131.050323,251.867783 
z"/>
<path fill="#79716E" opacity="1.000000" stroke="none" 
	d="
M238.416656,257.000000 
	C238.001953,255.660553 238.003922,254.321106 238.432922,252.529510 
	C240.247177,252.111374 241.634399,252.145416 243.013855,252.579834 
	C243.004059,254.320145 243.002029,255.660065 243.000000,257.000000 
	C241.611115,257.000000 240.222214,257.000000 238.416656,257.000000 
z"/>
<path fill="#6D605C" opacity="1.000000" stroke="none" 
	d="
M243.399811,257.000000 
	C243.002029,255.660065 243.004059,254.320145 243.410828,252.521317 
	C244.881409,252.101059 245.947250,252.139709 247.013107,252.178345 
	C247.008987,253.516861 247.004883,254.855347 247.000381,256.596924 
	C245.933212,257.000000 244.866425,257.000000 243.399811,257.000000 
z"/>
<path fill="#BCB9B8" opacity="1.000000" stroke="none" 
	d="
M222.600266,1.000000 
	C222.995209,2.418198 222.990417,3.836396 222.573608,5.713871 
	C221.100876,6.137912 220.040176,6.102675 218.979462,6.067439 
	C218.986420,4.659404 218.993362,3.251370 219.000153,1.421668 
	C220.066849,1.000000 221.133698,1.000000 222.600266,1.000000 
z"/>
<path fill="#F6F5F5" opacity="1.000000" stroke="none" 
	d="
M218.532547,6.083859 
	C220.040176,6.102675 221.100876,6.137912 222.556854,6.140201 
	C224.686325,6.285739 226.420517,6.464226 228.522141,6.627830 
	C232.994629,6.672016 237.099701,6.731086 241.535217,6.577241 
	C243.297043,6.352202 244.728455,6.340078 246.573868,6.217295 
	C248.284637,6.379404 249.581375,6.652174 251.180496,7.062191 
	C251.536758,7.862788 251.637970,8.526146 251.637863,9.189488 
	C251.624756,89.424500 251.604156,169.659500 251.531860,250.347168 
	C250.218063,251.217621 248.956360,251.635422 247.353882,252.115784 
	C245.947250,252.139709 244.881409,252.101059 243.418579,252.120941 
	C241.634399,252.145416 240.247177,252.111374 238.446045,252.130661 
	C236.621796,252.080933 235.211441,251.977905 233.375183,251.856171 
	C231.565186,251.806961 230.181107,251.776443 228.382416,251.794067 
	C226.562057,251.694702 225.156326,251.547211 223.393646,251.452789 
	C221.593292,251.633362 220.149872,251.760849 218.337555,251.914978 
	C213.540771,251.690933 209.112915,251.440247 204.240875,251.307495 
	C202.126480,251.412796 200.456223,251.400146 198.371796,251.448486 
	C196.357788,251.488586 194.757980,251.467697 192.480103,251.300568 
	C191.246323,251.293427 190.690582,251.432541 190.134842,251.571655 
	C188.043106,251.718689 185.951370,251.865723 183.415100,252.090027 
	C181.581787,252.117508 180.192993,252.067719 178.392883,252.090454 
	C174.009750,252.462448 170.037918,252.761932 166.001190,253.482391 
	C162.869110,253.201324 159.801926,252.499252 156.394867,251.650574 
	C154.371719,251.481995 152.688461,251.460037 150.583252,251.461395 
	C146.090286,251.605896 142.019257,251.727081 137.510773,251.875397 
	C135.348770,251.852905 133.624207,251.803284 131.474991,251.810730 
	C129.656982,251.811462 128.263641,251.755142 126.461365,251.787262 
	C124.378960,251.741119 122.705513,251.606552 120.343307,251.338928 
	C118.795067,251.367767 117.935585,251.529663 117.076111,251.691559 
	C113.347481,251.694687 109.618843,251.697815 105.434509,251.794601 
	C103.274078,251.819992 101.569366,251.751740 99.444397,251.768417 
	C97.283279,251.737457 95.542412,251.621552 93.414879,251.507401 
	C90.741188,251.515366 88.454163,251.521591 85.320633,251.417236 
	C83.584221,251.392868 82.694328,251.479065 81.804436,251.565247 
	C79.874954,251.522919 77.945465,251.480591 75.204254,251.374069 
	C73.849304,251.398621 73.306084,251.487350 72.762863,251.576080 
	C70.784599,251.526932 68.806328,251.477798 66.402298,251.470276 
	C63.604477,251.491241 61.232422,251.470566 58.416042,251.479446 
	C55.874191,251.531052 53.776661,251.553101 51.326309,251.714417 
	C48.938244,251.787018 46.903004,251.720367 44.444176,251.765381 
	C41.309944,251.805740 38.599300,251.734451 35.450512,251.777542 
	C30.639677,251.825607 26.266991,251.759293 21.435890,251.787613 
	C18.926685,251.811569 16.875893,251.740860 14.119905,251.486740 
	C12.524276,251.369446 11.633842,251.435577 10.743408,251.501709 
	C9.733084,251.449280 8.722759,251.396851 7.335238,251.299225 
	C6.849911,249.266144 6.647640,247.278320 6.647229,245.290451 
	C6.631235,167.945663 6.622465,90.600868 6.691973,13.256137 
	C6.693900,11.112280 7.561183,8.969200 8.454650,6.694139 
	C12.996713,6.638164 17.109074,6.713808 21.555199,6.575764 
	C25.294626,6.347734 28.700287,6.333393 32.554905,6.209554 
	C33.003860,6.100055 33.345139,6.289836 33.536533,6.252932 
	C41.167744,6.309967 48.607555,6.403906 56.513882,6.493599 
	C59.020226,6.493105 61.060062,6.496857 63.536560,6.495349 
	C66.015854,6.503842 68.058472,6.517596 70.538300,6.509936 
	C76.017136,6.526566 81.058769,6.564609 86.565475,6.546235 
	C88.339058,6.507526 89.647552,6.525233 91.698517,6.655247 
	C93.606201,6.597311 94.771431,6.427070 95.936661,6.256827 
	C98.658485,6.285885 101.380302,6.314943 104.540756,6.226947 
	C108.701500,6.187648 112.423599,6.265404 116.784294,6.526169 
	C118.254776,6.628285 119.086670,6.547390 119.918564,6.466496 
	C121.670135,6.397805 123.421707,6.329114 125.607140,6.191553 
	C127.432640,6.160257 128.824280,6.197831 130.633179,6.183791 
	C132.443039,6.145999 133.835632,6.159821 135.648422,6.144305 
	C142.169968,6.332450 148.271317,6.549934 154.814865,6.624715 
	C157.125412,6.498458 158.993759,6.514904 161.688690,6.687153 
	C164.979919,6.680475 167.444565,6.517994 169.909210,6.355513 
	C172.315521,6.335948 174.721832,6.316383 177.566498,6.192222 
	C179.402267,6.154598 180.799683,6.221572 182.608673,6.192236 
	C184.742279,6.163648 186.464310,6.231370 188.611633,6.213942 
	C190.759598,6.203497 192.482300,6.278203 194.896545,6.533483 
	C196.454254,6.671767 197.320374,6.629479 198.186508,6.587192 
	C200.237885,6.466593 202.289276,6.345994 204.737762,6.201635 
	C206.497955,6.179471 207.861038,6.181067 209.636841,6.162343 
	C212.728256,6.128108 215.406952,6.114193 218.532547,6.083859 
M150.876236,248.860764 
	C152.278671,248.820328 153.681107,248.779892 155.971039,248.842590 
	C158.665527,248.819839 161.360016,248.797089 164.890305,248.876175 
	C166.286270,248.818008 167.682251,248.759827 169.968033,248.819016 
	C172.962921,248.771072 175.957825,248.723145 179.768326,248.860840 
	C181.158707,248.816711 182.549088,248.772583 184.853851,248.916656 
	C188.856613,248.854401 192.859390,248.792130 197.778397,248.925858 
	C201.472031,248.863190 205.165680,248.800522 209.799011,248.893280 
	C213.911240,248.844971 218.023483,248.796661 223.047562,248.812485 
	C227.401566,248.793961 231.755585,248.775436 236.985428,248.821686 
	C239.334854,248.787598 241.684296,248.753525 244.884506,248.853638 
	C246.135895,248.773132 247.387283,248.692627 248.674301,248.609818 
	C248.674301,168.668594 248.674301,89.136505 248.674301,9.257896 
	C245.985657,9.257896 243.539307,9.257896 240.177338,9.073712 
	C236.478683,9.144863 232.780029,9.216014 228.201950,9.124476 
	C225.839340,9.173017 223.476730,9.221558 220.188034,9.122612 
	C216.748535,9.175696 213.309021,9.228782 208.978561,9.185643 
	C205.951370,9.209435 202.924194,9.233227 199.008423,9.178774 
	C196.320190,9.204987 193.631943,9.231199 190.183426,9.154432 
	C188.422485,9.204033 186.661545,9.253634 184.173233,9.176776 
	C182.432587,9.225314 180.691925,9.273852 178.112106,9.175571 
	C175.295319,9.225949 172.478531,9.276328 169.032867,9.138897 
	C167.709488,9.187010 166.386093,9.235124 164.203812,9.097517 
	C162.159897,9.152221 160.115982,9.206924 157.261642,9.089423 
	C154.154663,10.041012 151.047668,10.992600 147.275909,11.629755 
	C144.227158,7.244214 139.782791,9.571165 135.008759,9.175340 
	C132.643021,9.206241 130.277283,9.237142 127.014038,9.180213 
	C123.984711,9.205884 120.955376,9.231555 117.015816,9.158061 
	C113.021393,9.200124 109.026978,9.242186 104.188339,9.122993 
	C102.472656,9.168421 100.756966,9.213847 98.111786,9.096531 
	C82.732582,9.154076 67.353371,9.211619 51.103893,9.146914 
	C49.056644,9.195341 47.009392,9.243767 44.064949,9.163388 
	C41.035320,9.206503 38.005688,9.249619 34.064087,9.151140 
	C30.050642,9.199233 26.037199,9.247326 21.207718,9.135230 
	C19.824341,9.177961 18.440966,9.220693 16.173912,9.091525 
	C13.929411,9.091525 11.684910,9.091525 9.427073,9.091525 
	C9.427073,89.401962 9.427073,168.895432 9.427073,248.758789 
	C13.168916,248.758789 16.617430,248.758789 20.989834,248.858734 
	C27.309622,248.811386 33.629410,248.764038 40.872704,248.894073 
	C45.562378,248.843491 50.252048,248.792923 55.872601,248.910461 
	C68.268852,248.846664 80.665108,248.782883 93.971603,248.825104 
	C97.664345,248.791916 101.357094,248.758743 105.951416,248.839905 
	C109.283653,248.804825 112.615883,248.769745 116.852486,248.903198 
	C120.188240,248.844376 123.523987,248.785538 127.761520,248.920670 
	C130.802963,248.865997 133.844406,248.811340 137.797211,248.899963 
	C140.240753,248.841721 142.684280,248.783478 145.942337,248.820816 
	C147.308487,248.792908 148.674622,248.764984 150.876236,248.860764 
z"/>
<path fill="#BCB9B8" opacity="1.000000" stroke="none" 
	d="
M119.871513,6.125452 
	C119.086670,6.547390 118.254776,6.628285 117.249573,6.506838 
	C117.181946,5.632104 117.287613,4.959713 117.669518,4.076614 
	C118.571991,4.505406 119.198227,5.144907 119.871513,6.125452 
z"/>
<path fill="#BCB9B8" opacity="1.000000" stroke="none" 
	d="
M117.049454,252.038818 
	C117.935585,251.529663 118.795067,251.367767 119.974968,251.345612 
	C119.688629,252.267517 119.081871,253.049683 118.210831,253.983093 
	C117.638626,253.551605 117.330711,252.968842 117.049454,252.038818 
z"/>
<path fill="#C1BDBC" opacity="1.000000" stroke="none" 
	d="
M169.924896,6.000248 
	C167.444565,6.517994 164.979919,6.680475 162.088898,6.699553 
	C163.260178,5.135172 164.857834,3.714195 166.743927,2.124531 
	C168.001755,3.185559 168.971176,4.415271 169.924896,6.000248 
z"/>
<path fill="#BCB9B8" opacity="1.000000" stroke="none" 
	d="
M81.902771,251.839584 
	C82.694328,251.479065 83.584221,251.392868 84.900818,251.467346 
	C85.062309,252.359207 84.797089,253.090408 84.303619,254.017273 
	C83.383942,253.513245 82.692520,252.813583 81.902771,251.839584 
z"/>
<path fill="#BCB9B8" opacity="1.000000" stroke="none" 
	d="
M72.850967,251.816849 
	C73.306084,251.487350 73.849304,251.398621 74.793602,251.429520 
	C74.929253,251.992371 74.663818,252.435577 74.183716,253.037750 
	C73.625725,252.817017 73.282394,252.437317 72.850967,251.816849 
z"/>
<path fill="#BCB9B8" opacity="1.000000" stroke="none" 
	d="
M95.961304,5.914947 
	C94.771431,6.427070 93.606201,6.597311 92.089951,6.630138 
	C92.637527,5.661880 93.536110,4.831037 94.753876,3.921818 
	C95.377342,4.419982 95.681641,4.996525 95.961304,5.914947 
z"/>
<path fill="#C1BDBC" opacity="1.000000" stroke="none" 
	d="
M198.099457,6.325530 
	C197.320374,6.629479 196.454254,6.671767 195.328857,6.514475 
	C195.512070,5.628680 195.954575,4.942464 196.704514,4.173242 
	C197.345444,4.748112 197.678940,5.405990 198.099457,6.325530 
z"/>
<path fill="#CECAC9" opacity="1.000000" stroke="none" 
	d="
M190.100006,251.904221 
	C190.690582,251.432541 191.246323,251.293427 192.081985,251.275070 
	C191.964066,252.019852 191.566238,252.643890 191.076538,253.530640 
	C190.678177,253.274475 190.371658,252.755615 190.100006,251.904221 
z"/>
<path fill="#BCB9B8" opacity="1.000000" stroke="none" 
	d="
M10.840940,251.765381 
	C11.633842,251.435577 12.524276,251.369446 13.679554,251.515656 
	C13.707992,252.274780 13.471585,252.821594 13.088316,253.636810 
	C12.273792,253.279816 11.606133,252.654434 10.840940,251.765381 
z"/>
<path fill="#897E7B" opacity="1.000000" stroke="none" 
	d="
M20.065945,248.758789 
	C16.617430,248.758789 13.168916,248.758789 9.427073,248.758789 
	C9.427073,168.895432 9.427073,89.401962 9.427073,9.091525 
	C11.684910,9.091525 13.929411,9.091525 16.542233,9.520667 
	C16.585665,11.553100 16.260777,13.156390 15.607386,15.056351 
	C15.216641,40.568985 15.154400,65.784950 15.023813,91.465302 
	C15.000603,116.619911 15.045738,141.310120 15.022694,166.464737 
	C14.937787,191.251282 14.879961,215.573608 14.993644,239.895142 
	C15.001511,241.578186 16.286638,243.255280 17.123722,245.218994 
	C18.201752,246.588181 19.133848,247.673477 20.065945,248.758789 
z"/>
<path fill="#6D605C" opacity="1.000000" stroke="none" 
	d="
M241.092957,9.257896 
	C243.539307,9.257896 245.985657,9.257896 248.674301,9.257896 
	C248.674301,89.136505 248.674301,168.668594 248.674301,248.609818 
	C247.387283,248.692627 246.135895,248.773132 244.384674,248.428986 
	C243.585861,246.320969 243.286865,244.637604 242.997223,242.489288 
	C242.956100,216.019180 242.905609,190.013992 242.911331,163.541931 
	C242.930191,140.046814 242.892838,117.018593 242.910217,93.525200 
	C242.981491,68.569504 243.038376,44.078789 242.923294,19.588892 
	C242.915665,17.966448 241.598969,16.350157 240.899017,14.339642 
	C240.968903,12.384820 241.030930,10.821359 241.092957,9.257896 
z"/>
<path fill="#897E7B" opacity="1.000000" stroke="none" 
	d="
M51.974167,9.269163 
	C67.353371,9.211619 82.732582,9.154076 98.496361,9.482757 
	C97.918747,11.267606 96.956551,12.666230 95.620834,14.037158 
	C93.829666,14.392682 92.412033,14.775902 90.530334,15.092625 
	C77.719765,14.934116 65.373253,14.842105 53.022301,14.394737 
	C52.669964,12.449307 52.322067,10.859236 51.974167,9.269163 
z"/>
<path fill="#948A88" opacity="1.000000" stroke="none" 
	d="
M93.061356,248.719086 
	C80.665108,248.782883 68.268852,248.846664 55.421459,248.436081 
	C55.000595,246.396561 55.030869,244.831421 55.522213,243.211792 
	C68.307648,243.184570 80.632004,243.211823 92.962784,243.631012 
	C92.999916,245.588333 93.030640,247.153702 93.061356,248.719086 
z"/>
<path fill="#675855" opacity="1.000000" stroke="none" 
	d="
M20.527889,248.808762 
	C19.133848,247.673477 18.201752,246.588181 17.211458,244.817078 
	C17.988449,243.761383 18.823027,243.073425 19.658920,243.071823 
	C26.457975,243.058792 33.257275,243.174179 40.047855,243.641083 
	C40.009209,245.593369 39.979202,247.155029 39.949200,248.716705 
	C33.629410,248.764038 27.309622,248.811386 20.527889,248.808762 
z"/>
<path fill="#675855" opacity="1.000000" stroke="none" 
	d="
M105.032555,9.284248 
	C109.026978,9.242186 113.021393,9.200124 117.556343,9.525663 
	C119.053123,11.317302 120.009369,12.741338 120.671783,14.452586 
	C114.910362,14.752662 109.442780,14.765525 103.993805,14.425903 
	C104.352455,12.477028 104.692505,10.880638 105.032555,9.284248 
z"/>
<path fill="#79716E" opacity="1.000000" stroke="none" 
	d="
M40.410950,248.805389 
	C39.979202,247.155029 40.009209,245.593369 40.507313,243.588104 
	C45.670658,243.185089 50.365902,243.225677 55.061142,243.266266 
	C55.030869,244.831421 55.000595,246.396561 54.956020,248.352020 
	C50.252048,248.792923 45.562378,248.843491 40.410950,248.805389 
z"/>
<path fill="#A79F9D" opacity="1.000000" stroke="none" 
	d="
M236.109589,248.756897 
	C231.755585,248.775436 227.401566,248.793961 222.498199,248.441849 
	C221.616760,246.450439 221.284668,244.829666 221.412262,243.119110 
	C226.214081,243.105225 230.556229,243.181137 234.918243,243.611542 
	C235.328598,245.562988 235.719086,247.159958 236.109589,248.756897 
z"/>
<path fill="#615652" opacity="1.000000" stroke="none" 
	d="
M22.023754,9.295418 
	C26.037199,9.247326 30.050642,9.199233 34.521660,9.575722 
	C35.323811,11.592741 35.668385,13.185180 35.551231,14.843884 
	C30.721638,14.864523 26.353767,14.818898 21.988926,14.381765 
	C22.002556,12.425311 22.013155,10.860365 22.023754,9.295418 
z"/>
<path fill="#948A88" opacity="1.000000" stroke="none" 
	d="
M240.635147,9.165804 
	C241.030930,10.821359 240.968903,12.384820 240.445801,14.382429 
	C235.977127,14.808712 231.969543,14.800847 227.974915,14.434694 
	C228.352371,12.479993 228.716873,10.883578 229.081375,9.287165 
	C232.780029,9.216014 236.478683,9.144863 240.635147,9.165804 
z"/>
<path fill="#A79F9D" opacity="1.000000" stroke="none" 
	d="
M208.859314,248.737854 
	C205.165680,248.800522 201.472031,248.863190 197.343750,248.437119 
	C196.978531,246.380493 197.047943,244.812607 197.571335,243.210632 
	C202.031372,243.185318 206.037430,243.194122 210.027573,243.564316 
	C209.627533,245.529770 209.243423,247.133804 208.859314,248.737854 
z"/>
<path fill="#736764" opacity="1.000000" stroke="none" 
	d="
M197.117355,243.244720 
	C197.047943,244.812607 196.978531,246.380493 196.885635,248.339111 
	C192.859390,248.792130 188.856613,248.854401 184.467010,248.480225 
	C184.415665,246.452148 184.751160,244.860504 185.539597,243.216400 
	C189.700806,243.190872 193.409073,243.217789 197.117355,243.244720 
z"/>
<path fill="#79716E" opacity="1.000000" stroke="none" 
	d="
M93.516479,248.772095 
	C93.030640,247.153702 92.999916,245.588333 93.297470,243.544357 
	C94.080994,242.994980 94.536247,242.924194 95.441696,242.917175 
	C98.906853,243.075897 101.921814,243.170853 104.945312,243.656311 
	C104.985855,245.606400 105.017845,247.165985 105.049835,248.725555 
	C101.357094,248.758743 97.664345,248.791916 93.516479,248.772095 
z"/>
<path fill="#615652" opacity="1.000000" stroke="none" 
	d="
M105.500626,248.782730 
	C105.017845,247.165985 104.985855,245.606400 105.405930,243.575043 
	C109.589943,243.152176 113.321899,243.201065 117.043976,243.605652 
	C116.672104,245.552475 116.310112,247.143570 115.948120,248.734680 
	C112.615883,248.769745 109.283653,248.804825 105.500626,248.782730 
z"/>
<path fill="#C7C3C2" opacity="1.000000" stroke="none" 
	d="
M209.329163,248.815567 
	C209.243423,247.133804 209.627533,245.529770 210.479126,243.507507 
	C214.281921,243.129181 217.617249,243.169037 220.952591,243.208893 
	C221.284668,244.829666 221.616760,246.450439 222.042282,248.409790 
	C218.023483,248.796661 213.911240,248.844971 209.329163,248.815567 
z"/>
<path fill="#ADA4A3" opacity="1.000000" stroke="none" 
	d="
M136.885849,248.756683 
	C133.844406,248.811340 130.802963,248.865997 127.333649,248.433212 
	C126.970901,246.377426 127.036018,244.809097 127.551422,243.200714 
	C131.347565,243.176651 134.693436,243.192657 138.028046,243.570724 
	C137.639816,245.540741 137.262833,247.148712 136.885849,248.756683 
z"/>
<path fill="#79716E" opacity="1.000000" stroke="none" 
	d="
M127.101128,243.240768 
	C127.036018,244.809097 126.970901,246.377426 126.882767,248.336243 
	C123.523987,248.785538 120.188240,248.844376 116.400299,248.818939 
	C116.310112,247.143570 116.672104,245.552475 117.494003,243.548157 
	C121.002983,243.170212 124.052055,243.205490 127.101128,243.240768 
z"/>
<path fill="#C7C3C2" opacity="1.000000" stroke="none" 
	d="
M209.869522,9.281866 
	C213.309021,9.228782 216.748535,9.175696 220.562088,9.533661 
	C220.611511,11.561369 220.286880,13.178028 219.514633,14.853165 
	C216.058578,14.869376 213.050125,14.827110 210.032349,14.388435 
	C209.971848,12.421973 209.920685,10.851920 209.869522,9.281866 
z"/>
<path fill="#ADA4A3" opacity="1.000000" stroke="none" 
	d="
M209.424042,9.233755 
	C209.920685,10.851920 209.971848,12.421973 209.584290,14.474744 
	C206.125824,14.888235 203.106049,14.819010 200.079803,14.356388 
	C200.014557,12.394334 199.955780,10.825677 199.897003,9.257019 
	C202.924194,9.233227 205.951370,9.209435 209.424042,9.233755 
z"/>
<path fill="#432D26" opacity="1.000000" stroke="none" 
	d="
M178.952713,248.675217 
	C175.957825,248.723145 172.962921,248.771072 169.521393,248.370651 
	C169.016846,246.363480 168.958939,244.804672 169.360886,243.176300 
	C172.889664,243.146286 175.958572,243.185852 179.021011,243.614868 
	C178.993942,245.561279 178.973328,247.118256 178.952713,248.675217 
z"/>
<path fill="#C1BDBC" opacity="1.000000" stroke="none" 
	d="
M135.886551,9.261747 
	C139.782791,9.571165 144.227158,7.244214 147.635330,12.147327 
	C147.996170,13.146504 147.997589,13.628109 147.553253,14.058868 
	C143.419647,14.264710 139.731812,14.521397 136.036438,14.381464 
	C135.981461,12.410479 135.934006,10.836113 135.886551,9.261747 
z"/>
<path fill="#6D605C" opacity="1.000000" stroke="none" 
	d="
M36.012955,14.777618 
	C35.668385,13.185180 35.323811,11.592741 34.977646,9.646518 
	C38.005688,9.249619 41.035320,9.206503 44.515923,9.618471 
	C44.987877,11.639256 45.008854,13.204956 44.582939,14.844217 
	C41.428352,14.871058 38.720657,14.824338 36.012955,14.777618 
z"/>
<path fill="#432D26" opacity="1.000000" stroke="none" 
	d="
M169.661743,9.326707 
	C172.478531,9.276328 175.295319,9.225949 178.527100,9.637337 
	C178.973190,11.654450 179.004318,13.209798 178.584885,14.828827 
	C175.412277,14.850409 172.690216,14.808309 169.975983,14.312197 
	C169.876450,12.347692 169.769089,10.837200 169.661743,9.326707 
z"/>
<path fill="#897E7B" opacity="1.000000" stroke="none" 
	d="
M199.452713,9.217896 
	C199.955780,10.825677 200.014557,12.394334 199.638794,14.445854 
	C196.825912,14.870798 194.447586,14.812879 192.059052,14.398165 
	C191.680466,12.446717 191.312088,10.852064 190.943710,9.257412 
	C193.631943,9.231199 196.320190,9.204987 199.452713,9.217896 
z"/>
<path fill="#948A88" opacity="1.000000" stroke="none" 
	d="
M147.999023,14.109715 
	C147.997589,13.628109 147.996170,13.146504 147.967712,12.304544 
	C151.047668,10.992600 154.154663,10.041012 157.588623,9.518488 
	C157.589981,11.555351 157.264343,13.163150 156.507172,14.820871 
	C153.383423,14.617101 150.691223,14.363408 147.999023,14.109715 
z"/>
<path fill="#A79F9D" opacity="1.000000" stroke="none" 
	d="
M135.447662,9.218544 
	C135.934006,10.836113 135.981461,12.410479 135.598572,14.467016 
	C132.799637,14.888590 130.431030,14.827992 128.052917,14.373684 
	C127.999474,12.409331 127.955513,10.838687 127.911560,9.268044 
	C130.277283,9.237142 132.643021,9.206241 135.447662,9.218544 
z"/>
<path fill="#ADA4A3" opacity="1.000000" stroke="none" 
	d="
M219.962250,14.794685 
	C220.286880,13.178028 220.611511,11.561369 221.025131,9.607405 
	C223.476730,9.221558 225.839340,9.173017 228.641663,9.205820 
	C228.716873,10.883578 228.352371,12.479993 227.533875,14.491633 
	C224.707306,14.869468 222.334778,14.832075 219.962250,14.794685 
z"/>
<path fill="#897E7B" opacity="1.000000" stroke="none" 
	d="
M127.462799,9.224129 
	C127.955513,10.838687 127.999474,12.409331 127.651237,14.456635 
	C125.161240,14.677320 123.063431,14.421347 120.965622,14.165373 
	C120.009369,12.741338 119.053123,11.317302 118.011459,9.575246 
	C120.955376,9.231555 123.984711,9.205884 127.462799,9.224129 
z"/>
<path fill="#79716E" opacity="1.000000" stroke="none" 
	d="
M236.547516,248.789307 
	C235.719086,247.159958 235.328598,245.562988 235.361252,243.515930 
	C238.185562,243.028625 240.586716,242.991425 242.987869,242.954224 
	C243.286865,244.637604 243.585861,246.320969 243.959290,248.361893 
	C241.684296,248.753525 239.334854,248.787598 236.547516,248.789307 
z"/>
<path fill="#79716E" opacity="1.000000" stroke="none" 
	d="
M45.029831,14.770657 
	C45.008854,13.204956 44.987877,11.639256 44.964520,9.682874 
	C47.009392,9.243767 49.056644,9.195341 51.539032,9.208038 
	C52.322067,10.859236 52.669964,12.449307 52.582497,14.470175 
	C49.774693,14.857533 47.402264,14.814095 45.029831,14.770657 
z"/>
<path fill="#C7C3C2" opacity="1.000000" stroke="none" 
	d="
M137.341522,248.828308 
	C137.262833,247.148712 137.639816,245.540741 138.457550,243.511673 
	C140.917374,243.132996 142.936462,243.175430 144.965393,243.614441 
	C145.026108,245.582428 145.076965,247.153839 145.127823,248.725250 
	C142.684280,248.783478 140.240753,248.841721 137.341522,248.828308 
z"/>
<path fill="#736764" opacity="1.000000" stroke="none" 
	d="
M104.610443,9.203621 
	C104.692505,10.880638 104.352455,12.477028 103.570709,14.483313 
	C100.750793,14.617089 98.372574,14.340971 95.994362,14.064854 
	C96.956551,12.666230 97.918747,11.267606 98.961105,9.564129 
	C100.756966,9.213847 102.472656,9.168421 104.610443,9.203621 
z"/>
<path fill="#736764" opacity="1.000000" stroke="none" 
	d="
M156.938690,14.770949 
	C157.264343,13.163150 157.589981,11.555351 157.993835,9.604590 
	C160.115982,9.206924 162.159897,9.152221 164.569962,9.535543 
	C164.609268,11.574746 164.282410,13.175920 163.518829,14.825506 
	C161.034286,14.839594 158.986496,14.805272 156.938690,14.770949 
z"/>
<path fill="#827875" opacity="1.000000" stroke="none" 
	d="
M164.054504,248.774323 
	C161.360016,248.797089 158.665527,248.819839 155.508209,248.400970 
	C155.005402,246.393494 154.965424,244.827621 155.297638,243.179230 
	C157.763123,243.726227 159.856430,244.355728 162.007385,245.299530 
	C162.728195,246.667297 163.391357,247.720810 164.054504,248.774323 
z"/>
<path fill="#6D605C" opacity="1.000000" stroke="none" 
	d="
M190.563568,9.205922 
	C191.312088,10.852064 191.680466,12.446717 191.623886,14.477894 
	C189.148178,14.861778 187.097427,14.809140 185.035095,14.303935 
	C184.982544,12.335323 184.941574,10.819279 184.900604,9.303236 
	C186.661545,9.253634 188.422485,9.204033 190.563568,9.205922 
z"/>
<path fill="#615652" opacity="1.000000" stroke="none" 
	d="
M164.472412,248.825256 
	C163.391357,247.720810 162.728195,246.667297 162.051453,244.992249 
	C162.360107,243.870758 162.682373,243.370789 163.424408,242.927856 
	C165.529816,243.071884 167.215408,243.158875 168.901016,243.245865 
	C168.958939,244.804672 169.016846,246.363480 169.076492,248.311966 
	C167.682251,248.759827 166.286270,248.818008 164.472412,248.825256 
z"/>
<path fill="#514440" opacity="1.000000" stroke="none" 
	d="
M179.360519,248.768036 
	C178.973328,247.118256 178.993942,245.561279 179.451019,243.561829 
	C181.620560,243.169189 183.353607,243.219040 185.086670,243.268890 
	C184.751160,244.860504 184.415665,246.452148 184.009827,248.386108 
	C182.549088,248.772583 181.158707,248.816711 179.360519,248.768036 
z"/>
<path fill="#6D605C" opacity="1.000000" stroke="none" 
	d="
M21.615736,9.215324 
	C22.013155,10.860365 22.002556,12.425311 21.559830,14.444276 
	C19.397099,14.852089 17.666494,14.805884 15.935888,14.759680 
	C16.260777,13.156390 16.585665,11.553100 16.984070,9.606617 
	C18.440966,9.220693 19.824341,9.177961 21.615736,9.215324 
z"/>
<path fill="#514440" opacity="1.000000" stroke="none" 
	d="
M184.536926,9.240005 
	C184.941574,10.819279 184.982544,12.335323 184.608978,14.373929 
	C182.474777,14.852708 180.755096,14.808927 179.035431,14.765145 
	C179.004318,13.209798 178.973190,11.654450 178.946686,9.710747 
	C180.691925,9.273852 182.432587,9.225314 184.536926,9.240005 
z"/>
<path fill="#514440" opacity="1.000000" stroke="none" 
	d="
M163.955566,14.777096 
	C164.282410,13.175920 164.609268,11.574746 164.999420,9.628404 
	C166.386093,9.235124 167.709488,9.187010 169.347305,9.232801 
	C169.769089,10.837200 169.876450,12.347692 169.649353,14.371670 
	C168.877319,14.947960 168.439743,15.010766 167.597351,15.037573 
	C166.113571,14.926749 165.034561,14.851922 163.955566,14.777096 
z"/>
<path fill="#ADA4A3" opacity="1.000000" stroke="none" 
	d="
M145.535080,248.773041 
	C145.076965,247.153839 145.026108,245.582428 145.377869,243.529663 
	C147.178085,243.111069 148.575668,243.173828 149.976440,243.630951 
	C150.000015,245.595886 150.020401,247.166489 150.040771,248.737061 
	C148.674622,248.764984 147.308487,248.792908 145.535080,248.773041 
z"/>
<path fill="#9F9795" opacity="1.000000" stroke="none" 
	d="
M150.458496,248.798920 
	C150.020401,247.166489 150.000015,245.595886 150.385345,243.557922 
	C152.169189,243.147614 153.547333,243.204681 154.925461,243.261749 
	C154.965424,244.827621 155.005402,246.393494 155.064453,248.349426 
	C153.681107,248.779892 152.278671,248.820328 150.458496,248.798920 
z"/>
<path fill="#860000" opacity="1.000000" stroke="none" 
	d="
M94.991501,242.853394 
	C94.536247,242.924194 94.080994,242.994980 93.291054,243.152420 
	C80.632004,243.211823 68.307648,243.184570 55.522217,243.211792 
	C50.365902,243.225677 45.670658,243.185089 40.515957,243.197479 
	C33.257275,243.174179 26.457975,243.058792 19.658920,243.071823 
	C18.823027,243.073425 17.988449,243.761383 17.065525,244.533203 
	C16.286638,243.255280 15.001511,241.578186 14.993644,239.895142 
	C14.879961,215.573608 14.937787,191.251282 15.355155,166.548447 
	C16.677858,167.486053 17.789423,168.711349 18.489849,170.138412 
	C21.896231,177.078842 25.052031,184.146652 28.629419,190.995514 
	C29.493504,192.649796 31.622757,193.643234 33.512337,195.036636 
	C37.865368,205.359497 44.754490,212.758636 55.085945,217.140961 
	C56.269371,219.148987 57.118233,221.401657 58.724960,222.302353 
	C69.506927,228.346283 80.463760,234.077545 91.323456,239.984512 
	C92.668381,240.716064 93.774643,241.886398 94.991501,242.853394 
z"/>
<path fill="#860000" opacity="1.000000" stroke="none" 
	d="
M15.607386,15.056350 
	C17.666494,14.805884 19.397099,14.852089 21.556801,14.835783 
	C26.353767,14.818898 30.721638,14.864523 35.551231,14.843884 
	C38.720657,14.824338 41.428352,14.871058 44.582939,14.844217 
	C47.402264,14.814095 49.774693,14.857533 52.586933,14.825532 
	C65.373253,14.842105 77.719765,14.934116 90.444229,15.417545 
	C88.416557,17.195639 85.994583,18.554811 83.608162,19.973780 
	C73.642380,25.899443 62.844669,30.798923 53.911808,38.007565 
	C37.642895,51.136257 25.556568,67.813789 18.178080,87.641731 
	C17.686966,88.961487 16.145229,89.890282 15.092159,91.000916 
	C15.154400,65.784950 15.216641,40.568985 15.607386,15.056350 
z"/>
<path fill="#8A0000" opacity="1.000000" stroke="none" 
	d="
M15.023813,91.465302 
	C16.145229,89.890282 17.686966,88.961487 18.178080,87.641731 
	C25.556568,67.813789 37.642895,51.136257 53.911808,38.007565 
	C62.844669,30.798923 73.642380,25.899443 83.608162,19.973780 
	C85.994583,18.554811 88.416557,17.195639 90.908295,15.484042 
	C92.412033,14.775902 93.829666,14.392682 95.620834,14.037157 
	C98.372574,14.340971 100.750793,14.617089 103.552109,14.835798 
	C109.442780,14.765525 114.910362,14.752662 120.671783,14.452585 
	C123.063431,14.421347 125.161240,14.677320 127.660728,14.850344 
	C130.431030,14.827992 132.799637,14.888590 135.606110,14.863636 
	C139.731812,14.521397 143.419647,14.264710 147.553253,14.058868 
	C150.691223,14.363408 153.383423,14.617101 156.507172,14.820872 
	C158.986496,14.805272 161.034286,14.839594 163.518829,14.825506 
	C165.034561,14.851922 166.113571,14.926749 167.656982,15.379107 
	C170.246582,17.170830 172.307373,18.695368 174.508316,19.979706 
	C183.051819,24.965204 191.705765,29.766888 200.134293,34.937473 
	C201.286804,35.644505 201.398285,38.048523 201.695602,39.845284 
	C199.932663,40.971516 198.465897,41.919300 196.943497,42.525482 
	C195.903687,40.902142 195.158173,39.285950 193.900024,38.388142 
	C169.696930,21.116987 142.600510,14.100557 113.344223,18.359310 
	C83.580269,22.691961 58.974583,37.089184 40.454346,61.100178 
	C25.019787,81.110672 17.405134,103.987717 17.088078,129.150955 
	C16.904272,143.738678 20.051376,157.874802 25.799414,171.279831 
	C27.608652,175.499161 30.726192,179.157501 33.255630,183.511002 
	C33.234283,187.613129 33.202251,191.276840 33.170219,194.940567 
	C31.622757,193.643234 29.493504,192.649796 28.629419,190.995514 
	C25.052031,184.146652 21.896231,177.078842 18.489849,170.138412 
	C17.789423,168.711349 16.677858,167.486053 15.423336,166.084045 
	C15.045738,141.310120 15.000603,116.619911 15.023813,91.465302 
z"/>
<path fill="#860000" opacity="1.000000" stroke="none" 
	d="
M185.539581,243.216415 
	C183.353607,243.219040 181.620560,243.169189 179.457489,243.172379 
	C175.958572,243.185852 172.889664,243.146286 169.360886,243.176300 
	C167.215408,243.158875 165.529816,243.071884 163.510208,242.599014 
	C164.660141,241.234451 166.079453,240.135727 167.638382,239.296341 
	C178.516312,233.439270 189.603989,227.940048 200.212341,221.632996 
	C203.464676,219.699341 205.428955,215.599182 208.198029,212.263885 
	C211.632202,208.690262 214.851410,205.343887 218.432861,201.986801 
	C220.203201,200.971802 222.161926,200.277939 222.931137,198.913483 
	C228.431458,189.156723 233.652847,179.243195 239.056046,169.430801 
	C240.114334,167.508896 241.578278,165.810379 242.855133,164.008820 
	C242.905609,190.013992 242.956100,216.019180 242.997223,242.489288 
	C240.586716,242.991425 238.185562,243.028625 235.341400,243.161423 
	C230.556229,243.181137 226.214081,243.105225 221.412262,243.119110 
	C217.617249,243.169037 214.281921,243.129181 210.495026,243.146118 
	C206.037430,243.194122 202.031372,243.185318 197.571335,243.210632 
	C193.409073,243.217789 189.700806,243.190872 185.539581,243.216415 
z"/>
<path fill="#860000" opacity="1.000000" stroke="none" 
	d="
M201.991760,39.666843 
	C201.398285,38.048523 201.286804,35.644505 200.134293,34.937473 
	C191.705765,29.766888 183.051819,24.965204 174.508316,19.979706 
	C172.307373,18.695368 170.246582,17.170830 168.061783,15.415104 
	C168.439743,15.010766 168.877319,14.947960 169.641541,14.825681 
	C172.690216,14.808309 175.412277,14.850409 178.584885,14.828827 
	C180.755096,14.808927 182.474777,14.852708 184.620560,14.826496 
	C187.097427,14.809140 189.148178,14.861778 191.634094,14.834688 
	C194.447586,14.812879 196.825912,14.870798 199.645264,14.839251 
	C203.106049,14.819010 206.125824,14.888235 209.593643,14.871152 
	C213.050125,14.827110 216.058578,14.869376 219.514618,14.853163 
	C222.334778,14.832075 224.707306,14.869468 227.520905,14.849920 
	C231.969543,14.800847 235.977127,14.808712 240.437943,14.773790 
	C241.598969,16.350157 242.915665,17.966448 242.923294,19.588892 
	C243.038376,44.078789 242.981491,68.569504 242.580597,93.437271 
	C241.476410,92.753853 240.621643,91.759956 240.058167,90.621857 
	C235.797470,82.016144 232.176620,73.023926 227.170883,64.880913 
	C223.745636,59.308922 218.415619,54.907845 213.955292,49.666214 
	C214.454010,48.345001 214.934570,47.340874 215.595123,45.960663 
	C210.914566,43.795124 206.453171,41.730984 201.991760,39.666843 
z"/>
<path fill="#8B0000" opacity="1.000000" stroke="none" 
	d="
M213.937134,49.983299 
	C218.415619,54.907845 223.745636,59.308922 227.170883,64.880913 
	C232.176620,73.023926 235.797470,82.016144 240.058167,90.621857 
	C240.621643,91.759956 241.476410,92.753853 242.525879,93.902451 
	C242.892838,117.018593 242.930191,140.046814 242.911346,163.541931 
	C241.578278,165.810379 240.114334,167.508896 239.056046,169.430801 
	C233.652847,179.243195 228.431458,189.156723 222.931137,198.913483 
	C222.161926,200.277939 220.203201,200.971802 218.443787,201.589691 
	C218.604706,198.371414 221.118744,195.269104 217.005051,192.692337 
	C217.435379,191.262772 217.679855,190.088776 218.297211,189.163605 
	C232.014023,168.607697 237.787003,146.140411 236.168777,121.379921 
	C235.104156,105.090164 230.682663,90.016197 222.783203,76.023590 
	C219.270340,69.801125 214.027893,64.555084 209.652039,58.503998 
	C211.134781,55.422535 212.535950,52.702919 213.937134,49.983299 
z"/>
<path fill="#8B0000" opacity="1.000000" stroke="none" 
	d="
M207.983063,212.491119 
	C205.428955,215.599182 203.464676,219.699341 200.212341,221.632996 
	C189.603989,227.940048 178.516312,233.439270 167.638382,239.296341 
	C166.079453,240.135727 164.660141,241.234451 163.090424,242.541992 
	C162.682373,243.370789 162.360107,243.870758 161.993805,244.677979 
	C159.856430,244.355728 157.763123,243.726227 155.297638,243.179230 
	C153.547333,243.204681 152.169189,243.147614 150.382156,243.163574 
	C148.575668,243.173828 147.178085,243.111069 145.368011,243.133087 
	C142.936462,243.175430 140.917374,243.132996 138.468796,243.149612 
	C134.693436,243.192657 131.347565,243.176651 127.551422,243.200714 
	C124.052055,243.205490 121.002983,243.170212 117.503883,243.192444 
	C113.321899,243.201065 109.589943,243.152176 105.397377,243.184540 
	C101.921814,243.170853 98.906853,243.075897 95.441696,242.917175 
	C93.774643,241.886398 92.668381,240.716064 91.323456,239.984512 
	C80.463760,234.077545 69.506927,228.346283 58.724960,222.302353 
	C57.118233,221.401657 56.269371,219.148987 55.495049,217.170197 
	C62.615841,217.220688 69.311485,217.622757 76.006874,218.408325 
	C77.270554,220.495239 78.163269,222.952332 79.855637,223.785873 
	C97.506897,232.479828 116.007225,236.521759 135.896912,235.201233 
	C151.084671,234.192871 165.197815,230.287415 178.634964,223.559921 
	C181.084579,222.333466 182.887634,219.815552 185.428558,217.830383 
	C193.770172,218.232117 200.949707,215.667969 207.983063,212.491119 
z"/>
<path fill="#FDFBFB" opacity="1.000000" stroke="none" 
	d="
M208.198029,212.263885 
	C200.949707,215.667969 193.770172,218.232117 185.135071,217.612518 
	C180.599106,215.631104 176.796021,213.804138 172.874603,211.655838 
	C170.592880,207.370605 168.429504,203.406708 166.246735,199.066711 
	C165.771286,196.453049 165.315247,194.215469 164.923126,191.544815 
	C164.927246,184.417038 164.867447,177.722336 164.901703,170.589111 
	C165.310287,164.765411 165.624802,159.380219 166.042480,153.570221 
	C166.635406,149.372681 163.915512,149.653473 161.724670,149.969070 
	C153.881378,151.098862 146.055023,152.366669 138.259674,153.787521 
	C137.040451,154.009766 135.572861,155.054031 134.976074,156.135376 
	C132.115585,161.318527 129.515060,166.645126 126.541824,172.111420 
	C124.170143,175.854767 122.078819,179.407440 119.700775,183.138214 
	C117.194473,186.503342 114.974876,189.690384 112.457626,193.023148 
	C108.603348,197.054184 105.046722,200.939499 101.194977,204.951157 
	C97.543243,207.566879 94.186638,210.056274 90.476547,212.654526 
	C85.417747,214.517197 80.712440,216.271011 76.007126,218.024826 
	C69.311485,217.622757 62.615841,217.220688 55.511097,216.789368 
	C44.754490,212.758636 37.865368,205.359497 33.512337,195.036636 
	C33.202251,191.276840 33.234283,187.613129 33.493855,183.238770 
	C34.521820,180.030731 35.322250,177.533340 36.412407,174.877884 
	C38.802639,172.459351 40.903145,170.198883 43.344139,167.945160 
	C48.192284,167.708954 48.582287,168.442871 47.224052,172.474518 
	C46.304180,175.204987 45.442875,178.288101 45.792053,181.057571 
	C47.652397,195.812805 61.321747,203.910126 76.519012,199.318115 
	C79.976082,197.550079 83.057594,195.805374 86.461960,193.976395 
	C89.532883,190.936981 92.280945,187.981842 95.331161,184.874847 
	C99.470284,178.494553 103.307251,172.266129 107.428429,165.845230 
	C109.726875,161.917389 111.741112,158.182007 113.887337,154.201843 
	C107.682648,152.501572 103.711731,148.862015 101.941872,142.717407 
	C99.793190,135.257538 102.101395,129.180801 107.328552,123.633636 
	C108.964783,122.822105 110.276993,122.075478 110.898010,121.722122 
	C112.187721,125.900848 112.750175,129.919327 114.617569,133.193558 
	C116.743057,136.920303 121.694748,137.128769 123.598389,134.119415 
	C129.255692,125.176132 134.782959,116.150581 140.625427,106.958115 
	C144.408279,101.576469 147.926758,96.393898 151.711609,91.022751 
	C157.053772,84.052742 162.129608,77.271317 167.507019,70.086975 
	C165.170609,69.931206 163.677704,69.883469 162.196716,69.724686 
	C151.099899,68.534920 139.571548,69.763092 129.147247,63.577114 
	C126.939987,59.843628 124.892975,56.417480 122.912033,52.571941 
	C123.456947,49.496803 123.935799,46.841057 124.673050,43.996033 
	C126.224548,42.452278 127.517670,41.097797 128.643234,39.918816 
	C130.560562,43.371861 132.215271,46.351933 134.030167,49.628448 
	C145.481293,56.841702 157.791183,56.655277 170.702621,55.165306 
	C174.753540,54.185944 178.398636,53.145649 182.412933,52.073204 
	C186.192154,50.043556 189.602188,48.046055 193.336670,45.993565 
	C194.773773,44.914749 195.886459,43.890923 196.999130,42.867092 
	C198.465897,41.919300 199.932663,40.971516 201.695602,39.845284 
	C206.453171,41.730984 210.914566,43.795124 215.595123,45.960663 
	C214.934570,47.340874 214.454010,48.345001 213.955292,49.666214 
	C212.535950,52.702919 211.134781,55.422535 209.419769,58.752998 
	C207.710144,63.181801 206.314331,66.999756 204.641922,71.065460 
	C202.561142,77.539597 200.756973,83.765984 198.693085,90.264999 
	C195.703995,101.867928 192.974609,113.198235 190.111267,125.084663 
	C197.689529,124.114410 204.250153,124.068619 208.899506,130.679337 
	C210.991898,137.467377 210.050385,143.328705 205.504639,148.759781 
	C203.774033,149.976685 202.361465,151.038406 200.216949,152.650269 
	C200.291550,146.717010 197.514679,145.382278 192.633240,145.620316 
	C187.224350,145.884094 187.245728,149.310501 187.000641,153.017563 
	C186.880600,154.832993 186.500763,156.643372 186.516418,158.453644 
	C186.606232,168.828796 186.779465,179.203247 186.825897,189.931854 
	C187.212891,195.331848 189.912369,198.237289 195.426392,198.956421 
	C203.626266,199.617126 210.508759,197.040817 216.992874,193.063797 
	C221.118744,195.269104 218.604706,198.371414 218.081543,201.600403 
	C214.851410,205.343887 211.632202,208.690262 208.198029,212.263885 
M172.503677,116.557587 
	C175.591080,104.514679 178.678482,92.471779 181.765900,80.428871 
	C181.311386,80.152618 180.856873,79.876373 180.402359,79.600121 
	C174.919312,87.375618 169.436279,95.151115 163.384216,103.307968 
	C157.953323,112.772789 152.522415,122.237610 146.633728,132.500275 
	C154.229431,131.616837 160.957092,130.901749 167.654724,129.970627 
	C168.498367,129.853333 169.641541,128.716507 169.862671,127.851753 
	C170.761154,124.338211 171.354248,120.746574 172.503677,116.557587 
z"/>
<path fill="#8C0000" opacity="1.000000" stroke="none" 
	d="
M36.122681,175.035934 
	C35.322250,177.533340 34.521820,180.030731 33.483166,182.800369 
	C30.726192,179.157501 27.608652,175.499161 25.799414,171.279831 
	C20.051376,157.874802 16.904272,143.738678 17.088078,129.150955 
	C17.405134,103.987717 25.019787,81.110672 40.454346,61.100178 
	C58.974583,37.089184 83.580269,22.691961 113.344223,18.359310 
	C142.600510,14.100557 169.696930,21.116987 193.900024,38.388142 
	C195.158173,39.285950 195.903687,40.902142 196.943497,42.525486 
	C195.886459,43.890923 194.773773,44.914749 193.194672,45.684105 
	C191.104080,43.797050 189.715988,41.792538 187.819626,40.588787 
	C166.247711,26.895678 142.817322,20.981686 117.250130,23.676916 
	C102.805321,25.199652 89.395027,29.697224 76.754738,36.646900 
	C61.304180,45.141666 48.733185,56.798199 39.608246,71.904671 
	C30.478746,87.018684 24.985519,103.098511 23.578712,121.097603 
	C22.185001,138.929108 25.364664,155.402649 31.936508,171.573624 
	C32.536835,173.050827 34.690395,173.896820 36.122681,175.035934 
z"/>
<path fill="#910101" opacity="1.000000" stroke="none" 
	d="
M217.005051,192.692337 
	C210.508759,197.040817 203.626266,199.617126 195.486633,198.625397 
	C200.691116,190.560135 207.077530,183.401443 211.673660,175.235153 
	C221.601562,157.595444 225.666672,138.588989 223.143021,118.157990 
	C221.330032,103.480545 216.591415,90.094528 208.812927,77.647530 
	C207.425217,75.426903 206.212204,73.097099 204.918518,70.817711 
	C206.314331,66.999756 207.710144,63.181801 209.338226,59.114845 
	C214.027893,64.555084 219.270340,69.801125 222.783203,76.023590 
	C230.682663,90.016197 235.104156,105.090164 236.168777,121.379921 
	C237.787003,146.140411 232.014023,168.607697 218.297211,189.163605 
	C217.679855,190.088776 217.435379,191.262772 217.005051,192.692337 
z"/>
<path fill="#920100" opacity="1.000000" stroke="none" 
	d="
M76.006874,218.408325 
	C80.712440,216.271011 85.417747,214.517197 90.635529,212.999847 
	C92.275360,214.158005 93.260033,215.472412 94.551773,215.941788 
	C110.662254,221.795898 127.173912,225.421570 144.219925,221.276001 
	C153.987076,218.900635 163.413254,215.123322 172.992950,211.977158 
	C176.796021,213.804138 180.599106,215.631104 184.695679,217.675949 
	C182.887634,219.815552 181.084579,222.333466 178.634964,223.559921 
	C165.197815,230.287415 151.084671,234.192871 135.896912,235.201233 
	C116.007225,236.521759 97.506897,232.479828 79.855637,223.785873 
	C78.163269,222.952332 77.270554,220.495239 76.006874,218.408325 
z"/>
<path fill="#A90101" opacity="1.000000" stroke="none" 
	d="
M129.307480,63.884453 
	C139.571548,69.763092 151.099899,68.534920 162.196716,69.724686 
	C163.677704,69.883469 165.170609,69.931206 167.507019,70.086975 
	C162.129608,77.271317 157.053772,84.052742 151.360123,90.862411 
	C144.277588,88.928535 137.886124,85.585304 131.335800,85.238037 
	C99.138374,83.531090 76.455132,115.406609 88.388763,145.329697 
	C91.974998,154.322052 97.135834,162.545685 107.144218,166.037689 
	C103.307251,172.266129 99.470284,178.494553 95.270515,184.533585 
	C94.025414,183.410828 93.244873,182.347916 92.245804,181.563232 
	C71.646873,165.384567 61.615635,144.491486 66.187706,118.335045 
	C70.542091,93.423889 85.110451,76.311295 109.491669,68.419014 
	C115.913330,66.340294 122.692490,65.365936 129.307480,63.884453 
z"/>
<path fill="#920000" opacity="1.000000" stroke="none" 
	d="
M36.412407,174.877884 
	C34.690395,173.896820 32.536835,173.050827 31.936508,171.573624 
	C25.364664,155.402649 22.185001,138.929108 23.578712,121.097603 
	C24.985519,103.098511 30.478746,87.018684 39.608246,71.904671 
	C48.733185,56.798199 61.304180,45.141666 76.754738,36.646900 
	C89.395027,29.697224 102.805321,25.199652 117.250130,23.676916 
	C142.817322,20.981686 166.247711,26.895678 187.819626,40.588787 
	C189.715988,41.792538 191.104080,43.797050 192.870239,45.739090 
	C189.602188,48.046055 186.192154,50.043556 182.251953,51.767456 
	C180.666397,50.443466 179.779968,49.094646 178.530411,48.387287 
	C158.613922,37.112823 137.497879,31.274014 114.520279,35.399250 
	C93.509201,39.171432 75.253616,48.332443 60.426579,64.025002 
	C43.573444,81.861931 35.185154,103.287842 34.161263,127.454018 
	C33.565441,141.516708 37.281517,155.046356 43.003654,167.938400 
	C40.903145,170.198883 38.802639,172.459351 36.412407,174.877884 
z"/>
<path fill="#970101" opacity="1.000000" stroke="none" 
	d="
M43.344139,167.945160 
	C37.281517,155.046356 33.565441,141.516708 34.161263,127.454018 
	C35.185154,103.287842 43.573444,81.861931 60.426579,64.025002 
	C75.253616,48.332443 93.509201,39.171432 114.520279,35.399250 
	C137.497879,31.274014 158.613922,37.112823 178.530411,48.387287 
	C179.779968,49.094646 180.666397,50.443466 181.882751,51.799606 
	C178.398636,53.145649 174.753540,54.185944 170.233261,55.125328 
	C166.412231,54.804657 163.325562,55.070347 160.549515,54.265156 
	C154.577377,52.532944 148.863297,49.849918 142.843399,48.370899 
	C140.096756,47.696083 136.875809,48.951866 133.869980,49.332008 
	C132.215271,46.351933 130.560562,43.371861 128.643234,39.918816 
	C127.517670,41.097797 126.224548,42.452278 124.283752,43.827621 
	C122.017120,43.572430 120.305084,42.814220 118.795723,43.105667 
	C112.967163,44.231136 107.037201,45.205715 101.445892,47.116779 
	C83.326736,53.309765 68.334488,63.978397 57.661388,80.046562 
	C46.966511,96.147522 41.845272,113.850441 42.943634,133.358688 
	C44.333000,158.035446 54.072483,178.445343 72.820274,194.592590 
	C74.238960,195.814499 75.049965,197.741959 76.143440,199.341446 
	C61.321747,203.910126 47.652397,195.812805 45.792053,181.057571 
	C45.442875,178.288101 46.304180,175.204987 47.224052,172.474518 
	C48.582287,168.442871 48.192284,167.708954 43.344139,167.945160 
z"/>
<path fill="#A00000" opacity="1.000000" stroke="none" 
	d="
M129.147247,63.577110 
	C122.692490,65.365936 115.913330,66.340294 109.491669,68.419014 
	C85.110451,76.311295 70.542091,93.423889 66.187706,118.335045 
	C61.615635,144.491486 71.646873,165.384567 92.245804,181.563232 
	C93.244873,182.347916 94.025414,183.410828 94.968361,184.685440 
	C92.280945,187.981842 89.532883,190.936981 86.185379,193.773956 
	C80.335068,188.895401 74.596634,184.567291 69.922417,179.295578 
	C54.324802,161.704178 48.396187,140.902527 52.048756,117.800903 
	C57.047436,86.185440 75.397614,65.337807 105.432564,54.844120 
	C110.919731,52.926998 116.702408,50.302120 122.845970,52.991333 
	C124.892975,56.417480 126.939987,59.843628 129.147247,63.577110 
z"/>
<path fill="#B30101" opacity="1.000000" stroke="none" 
	d="
M107.428429,165.845230 
	C97.135834,162.545685 91.974998,154.322052 88.388763,145.329697 
	C76.455132,115.406609 99.138374,83.531090 131.335800,85.238037 
	C137.886124,85.585304 144.277588,88.928535 151.093781,91.050995 
	C147.926758,96.393898 144.408279,101.576469 140.205383,106.908951 
	C137.771210,106.577400 136.019241,106.103752 134.272018,105.613243 
	C122.029594,102.176361 107.430649,111.857727 107.004524,123.698540 
	C102.101395,129.180801 99.793190,135.257538 101.941872,142.717407 
	C103.711731,148.862015 107.682648,152.501572 113.887337,154.201843 
	C111.741112,158.182007 109.726875,161.917389 107.428429,165.845230 
z"/>
<path fill="#980101" opacity="1.000000" stroke="none" 
	d="
M204.641907,71.065460 
	C206.212204,73.097099 207.425217,75.426903 208.812927,77.647530 
	C216.591415,90.094528 221.330032,103.480545 223.143021,118.157990 
	C225.666672,138.588989 221.601562,157.595444 211.673660,175.235153 
	C207.077530,183.401443 200.691116,190.560135 195.056137,198.506683 
	C189.912369,198.237289 187.212891,195.331848 186.841064,189.486206 
	C187.508530,186.881012 187.521790,184.530411 188.703735,183.358032 
	C196.485184,175.639435 201.852982,166.483948 205.308807,156.207016 
	C206.091797,153.878555 205.682938,151.149338 205.822678,148.604584 
	C210.050385,143.328705 210.991898,137.467377 209.077942,130.282990 
	C211.706635,115.675705 206.601334,103.513206 200.875534,91.505890 
	C200.560806,90.845848 199.608398,90.489883 198.952805,89.992371 
	C200.756973,83.765984 202.561142,77.539597 204.641907,71.065460 
z"/>
<path fill="#9A0000" opacity="1.000000" stroke="none" 
	d="
M122.912033,52.571938 
	C116.702408,50.302120 110.919731,52.926998 105.432564,54.844120 
	C75.397614,65.337807 57.047436,86.185440 52.048756,117.800903 
	C48.396187,140.902527 54.324802,161.704178 69.922417,179.295578 
	C74.596634,184.567291 80.335068,188.895401 85.862518,193.858246 
	C83.057594,195.805374 79.976082,197.550079 76.519012,199.318115 
	C75.049965,197.741959 74.238960,195.814499 72.820274,194.592590 
	C54.072483,178.445343 44.333000,158.035446 42.943634,133.358688 
	C41.845272,113.850441 46.966511,96.147522 57.661388,80.046562 
	C68.334488,63.978397 83.326736,53.309765 101.445892,47.116779 
	C107.037201,45.205715 112.967163,44.231136 118.795723,43.105667 
	C120.305084,42.814220 122.017120,43.572430 124.025360,44.016899 
	C123.935799,46.841057 123.456947,49.496803 122.912033,52.571938 
z"/>
<path fill="#990101" opacity="1.000000" stroke="none" 
	d="
M172.874603,211.655838 
	C163.413254,215.123322 153.987076,218.900635 144.219925,221.276001 
	C127.173912,225.421570 110.662254,221.795898 94.551773,215.941788 
	C93.260033,215.472412 92.275360,214.158005 90.989014,212.890991 
	C94.186638,210.056274 97.543243,207.566879 101.595062,205.026886 
	C105.100662,205.970932 107.849060,207.222305 110.731575,207.918182 
	C128.272644,212.153015 145.268631,210.052979 161.732254,203.041534 
	C163.443954,202.312561 164.764236,200.664444 166.266129,199.442795 
	C168.429504,203.406708 170.592880,207.370605 172.874603,211.655838 
z"/>
<path fill="#9F0101" opacity="1.000000" stroke="none" 
	d="
M166.246735,199.066711 
	C164.764236,200.664444 163.443954,202.312561 161.732254,203.041534 
	C145.268631,210.052979 128.272644,212.153015 110.731575,207.918182 
	C107.849060,207.222305 105.100662,205.970932 101.890190,204.900543 
	C105.046722,200.939499 108.603348,197.054184 112.816620,193.190552 
	C124.640022,197.585434 135.844009,196.382401 146.934219,193.096054 
	C152.411499,191.472992 157.683594,189.157501 163.178543,187.106781 
	C163.810959,188.939758 164.335068,190.458817 164.859192,191.977875 
	C165.315247,194.215469 165.771286,196.453049 166.246735,199.066711 
z"/>
<path fill="#AB0101" opacity="1.000000" stroke="none" 
	d="
M119.987488,182.960114 
	C122.078819,179.407440 124.170143,175.854767 127.007477,172.132111 
	C141.987930,172.311859 153.758087,167.312820 162.708649,156.019760 
	C163.452667,155.081024 164.847092,154.657791 165.939331,153.995041 
	C165.624802,159.380219 165.310287,164.765411 164.695053,170.864899 
	C163.347305,172.888748 162.523514,174.503479 161.217422,175.458893 
	C151.862427,182.302200 141.041153,185.055466 129.725235,185.651031 
	C126.535355,185.818893 123.236404,183.914200 119.987488,182.960114 
z"/>
<path fill="#BE0202" opacity="1.000000" stroke="none" 
	d="
M107.328552,123.633636 
	C107.430649,111.857727 122.029594,102.176361 134.272018,105.613243 
	C136.019241,106.103752 137.771210,106.577400 139.941010,107.108017 
	C134.782959,116.150581 129.255692,125.176132 123.598389,134.119415 
	C121.694748,137.128769 116.743057,136.920303 114.617569,133.193558 
	C112.750175,129.919327 112.187721,125.900848 110.898010,121.722122 
	C110.276993,122.075478 108.964783,122.822105 107.328552,123.633636 
z"/>
<path fill="#A60303" opacity="1.000000" stroke="none" 
	d="
M119.700775,183.138214 
	C123.236404,183.914200 126.535355,185.818893 129.725235,185.651031 
	C141.041153,185.055466 151.862427,182.302200 161.217422,175.458893 
	C162.523514,174.503479 163.347305,172.888748 164.600983,171.303406 
	C164.867447,177.722336 164.927246,184.417038 164.923126,191.544815 
	C164.335068,190.458817 163.810959,188.939758 163.178543,187.106781 
	C157.683594,189.157501 152.411499,191.472992 146.934219,193.096054 
	C135.844009,196.382401 124.640022,197.585434 113.114273,193.044846 
	C114.974876,189.690384 117.194473,186.503342 119.700775,183.138214 
z"/>
<path fill="#9F0403" opacity="1.000000" stroke="none" 
	d="
M205.504639,148.759781 
	C205.682938,151.149338 206.091797,153.878555 205.308807,156.207016 
	C201.852982,166.483948 196.485184,175.639435 188.703735,183.358032 
	C187.521790,184.530411 187.508530,186.881012 186.939545,189.132294 
	C186.779465,179.203247 186.606232,168.828796 186.516418,158.453644 
	C186.500763,156.643372 186.880600,154.832993 187.000641,153.017563 
	C187.245728,149.310501 187.224350,145.884094 192.633240,145.620316 
	C197.514679,145.382278 200.291550,146.717010 200.216949,152.650269 
	C202.361465,151.038406 203.774033,149.976685 205.504639,148.759781 
z"/>
<path fill="#B20202" opacity="1.000000" stroke="none" 
	d="
M166.042480,153.570221 
	C164.847092,154.657791 163.452667,155.081024 162.708649,156.019760 
	C153.758087,167.312820 141.987930,172.311859 127.287827,171.941452 
	C129.515060,166.645126 132.115585,161.318527 134.976074,156.135376 
	C135.572861,155.054031 137.040451,154.009766 138.259674,153.787521 
	C146.055023,152.366669 153.881378,151.098862 161.724670,149.969070 
	C163.915512,149.653473 166.635406,149.372681 166.042480,153.570221 
z"/>
<path fill="#9F0403" opacity="1.000000" stroke="none" 
	d="
M198.693085,90.264999 
	C199.608398,90.489883 200.560806,90.845848 200.875534,91.505890 
	C206.601334,103.513206 211.706635,115.675705 209.031570,129.888519 
	C204.250153,124.068619 197.689529,124.114410 190.111267,125.084663 
	C192.974609,113.198235 195.703995,101.867928 198.693085,90.264999 
z"/>
<path fill="#B30404" opacity="1.000000" stroke="none" 
	d="
M172.059967,117.183731 
	C171.354248,120.746574 170.761154,124.338211 169.862671,127.851753 
	C169.641541,128.716507 168.498367,129.853333 167.654724,129.970627 
	C160.957092,130.901749 154.229431,131.616837 146.633728,132.500275 
	C152.522415,122.237610 157.953323,112.772789 163.885300,103.383179 
	C166.944244,108.033508 169.502106,112.608620 172.059967,117.183731 
z"/>
<path fill="#AA0909" opacity="1.000000" stroke="none" 
	d="
M172.281830,116.870659 
	C169.502106,112.608620 166.944244,108.033508 164.169800,103.192497 
	C169.436279,95.151115 174.919312,87.375618 180.402359,79.600121 
	C180.856873,79.876373 181.311386,80.152618 181.765900,80.428871 
	C178.678482,92.471779 175.591080,104.514679 172.281830,116.870659 
z"/>
<path fill="#9B0606" opacity="1.000000" stroke="none" 
	d="
M134.030167,49.628452 
	C136.875809,48.951866 140.096756,47.696083 142.843399,48.370899 
	C148.863297,49.849918 154.577377,52.532944 160.549515,54.265156 
	C163.325562,55.070347 166.412231,54.804657 169.827454,55.064392 
	C157.791183,56.655277 145.481293,56.841702 134.030167,49.628452 
z"/>
</svg>